<svg width="151" height="102" viewBox="0 0 151 102" fill="none" xmlns="http://www.w3.org/2000/svg">
<path d="M75.4999 31.7012C72.364 31.7012 69.8179 34.242 69.8179 37.3713C69.8179 39.7171 71.2478 41.7307 73.285 42.5924C72.6886 42.0153 72.3188 41.2063 72.3188 40.3125C72.3188 38.5649 73.7364 37.1456 75.4859 37.1381C75.4906 37.1381 75.4951 37.1381 75.4999 37.1381C77.0029 37.1305 78.2205 35.9108 78.2205 34.4092C78.2205 33.0585 77.2346 31.9362 75.9428 31.7186C75.7964 31.7073 75.6492 31.7012 75.4999 31.7012ZM77.7217 32.1502C78.3057 32.7258 78.667 33.526 78.667 34.4092C78.667 36.1568 77.2494 37.5761 75.4999 37.5836C75.4952 37.5836 75.4906 37.5836 75.4859 37.5836C73.9829 37.5912 72.7653 38.8109 72.7653 40.3125C72.7652 41.7495 73.881 42.9289 75.2941 43.0344C75.3623 43.0369 75.431 43.0379 75.4999 43.0379C78.6357 43.0379 81.1818 40.5006 81.1818 37.3713C81.1818 35.0282 79.755 33.0136 77.7217 32.1502ZM75.4999 33.2953C76.116 33.2953 76.616 33.7943 76.616 34.4092C76.616 35.024 76.116 35.523 75.4999 35.523C74.8837 35.523 74.3837 35.024 74.3837 34.4092C74.3837 33.7943 74.8837 33.2953 75.4999 33.2953ZM75.4999 39.1987C76.116 39.1987 76.616 39.6977 76.616 40.3125C76.616 40.9273 76.116 41.4263 75.4999 41.4263C74.8837 41.4263 74.3837 40.9273 74.3837 40.3125C74.3837 39.6977 74.8837 39.1987 75.4999 39.1987Z" fill="#A0A5AE"/>
<path d="M69.2531 16.2815C69.2524 16.318 69.2495 16.3547 69.2495 16.3914C69.2495 19.8343 72.0496 22.6285 75.4997 22.6285C78.9498 22.6285 81.7499 19.8343 81.7499 16.3914C81.7499 16.3547 81.747 16.318 81.7463 16.2815C80.6924 18.6813 78.292 20.3604 75.4997 20.3604C72.7073 20.3604 70.3069 18.6814 69.2531 16.2815Z" fill="#A0A5AE"/>
<path d="M75.5012 19.225C78.0116 19.225 80.0467 17.1941 80.0467 14.6889C80.0467 12.1837 78.0116 10.1528 75.5012 10.1528C72.9907 10.1528 70.9556 12.1837 70.9556 14.6889C70.9556 17.1941 72.9907 19.225 75.5012 19.225Z" fill="#A0A5AE"/>
<path d="M75.3904 0C74.5254 0.626335 75.1738 1.63461 75.1102 2.17181C75.0415 2.7515 74.7523 2.8687 74.6215 3.34225C74.4556 3.94288 74.5373 4.5651 74.6606 4.8118C74.7725 5.03588 74.8549 5.23155 74.8952 5.40352C74.8983 5.41701 74.9056 5.4293 74.9082 5.44253C74.9091 5.4455 74.9073 5.45256 74.9082 5.45554C74.9085 5.45718 74.9079 5.4604 74.9082 5.46204C74.9095 5.46654 74.9135 5.47051 74.9147 5.47505C74.917 5.48412 74.9193 5.49182 74.9212 5.50106C74.9217 5.50337 74.9208 5.50524 74.9212 5.50756C74.9215 5.51024 74.9209 5.51139 74.9212 5.51406C74.9215 5.51593 74.9209 5.51869 74.9212 5.52056C74.9264 5.55143 74.9343 5.57926 74.9343 5.6116C74.9345 5.92518 74.6751 6.18381 74.3608 6.18381C74.0466 6.18381 73.7937 5.92518 73.7939 5.6116C73.7939 5.6067 73.7938 5.60346 73.7939 5.59859C73.7941 5.59372 73.7937 5.59043 73.7939 5.58559C73.7942 5.58026 73.8001 5.57787 73.8005 5.57258C73.8006 5.57114 73.8003 5.56752 73.8005 5.56608C73.8007 5.56305 73.8002 5.5561 73.8005 5.55307C73.8007 5.55069 73.8002 5.54895 73.8005 5.54657C73.8007 5.54356 73.8001 5.54308 73.8005 5.54007C73.801 5.53533 73.7997 5.53177 73.8005 5.52707C73.8016 5.51807 73.8055 5.50998 73.807 5.50106C73.8074 5.49875 73.8065 5.49686 73.807 5.49455C73.8072 5.49307 73.8067 5.48954 73.807 5.48805C73.8074 5.48622 73.8065 5.48337 73.807 5.48155C73.8076 5.47859 73.8129 5.47799 73.8135 5.47505C73.8141 5.47278 73.8129 5.4708 73.8135 5.46854C73.8148 5.46266 73.8185 5.4549 73.82 5.44904C73.8204 5.4477 73.8196 5.44387 73.82 5.44253C73.8212 5.43815 73.8253 5.43391 73.8265 5.42953C73.8278 5.42516 73.8252 5.41439 73.8265 5.41002C73.9174 5.11631 74.1858 4.8519 74.1849 4.46717C74.1837 3.95814 73.8391 3.70252 73.7614 3.54382C73.7066 3.43194 73.6168 3.11818 73.7483 2.80255C73.508 3.09772 73.2386 3.32354 73.2401 3.64786C73.2412 3.89015 73.3767 4.13374 73.3639 4.48668C73.3491 4.89618 72.6845 5.15843 72.6602 6.18381C72.6602 7.75088 73.9308 9.01887 75.5011 9.01887C77.0715 9.01887 78.3421 7.75088 78.3421 6.18381C78.3178 5.15843 77.6532 4.89618 77.6384 4.48668C77.6256 4.13374 77.7611 3.89015 77.7622 3.64786C77.7638 3.32354 77.4943 3.09772 77.254 2.80255C77.3855 3.11818 77.2957 3.43194 77.2409 3.54382C77.1632 3.70252 76.8186 3.95814 76.8174 4.46717C76.8165 4.8519 77.0849 5.11631 77.1758 5.41002C77.1764 5.41175 77.1751 5.41478 77.1758 5.41652C77.1762 5.41798 77.1753 5.42157 77.1758 5.42303C77.1765 5.42521 77.175 5.42734 77.1758 5.42953C77.177 5.43391 77.1811 5.43815 77.1823 5.44253C77.1847 5.45131 77.1868 5.45971 77.1888 5.46854C77.1919 5.47983 77.193 5.48951 77.1953 5.50106C77.1963 5.507 77.201 5.51459 77.2018 5.52056C77.2037 5.53181 77.2007 5.54162 77.2018 5.55307C77.2023 5.55913 77.2016 5.56649 77.2018 5.57258C77.2022 5.57787 77.2081 5.58026 77.2084 5.58559C77.2084 5.58712 77.2083 5.59056 77.2084 5.59209C77.2084 5.59452 77.2083 5.59616 77.2084 5.59859C77.2085 5.60346 77.2084 5.6067 77.2084 5.6116C77.2086 5.92518 76.9557 6.18381 76.6415 6.18381C76.396 6.18381 76.1868 6.02412 76.1071 5.80667C76.1065 5.80493 76.1078 5.80191 76.1071 5.80017C76.086 5.74075 76.068 5.67824 76.068 5.6116C76.068 5.5773 76.0753 5.54669 76.0811 5.51406C76.0819 5.5094 76.0801 5.50568 76.0811 5.50106C76.0826 5.49366 76.0858 5.48884 76.0876 5.48155C76.0886 5.47574 76.0929 5.46782 76.0941 5.46204C76.0954 5.45755 76.0927 5.44698 76.0941 5.44253C76.0954 5.43677 76.0992 5.43527 76.1006 5.42953C76.1029 5.42293 76.1047 5.41651 76.1071 5.41002C76.1077 5.40812 76.1066 5.40542 76.1071 5.40352C76.1614 5.20014 76.2774 5.01402 76.3287 4.87682C76.421 4.62989 76.6121 4.22397 76.6089 3.70638C76.6064 3.31546 76.5147 2.44033 76.0355 1.76216C75.6521 1.21965 75.4039 0.986918 75.2731 0.637239C75.2064 0.458973 75.2592 0.228948 75.3904 0Z" fill="#A0A5AE"/>
<path d="M68.682 23.7612H63V50.9778H68.682V23.7612Z" fill="#A0A5AE"/>
<path d="M87.9999 23.7612H82.3179V50.9778H87.9999V23.7612Z" fill="#A0A5AE"/>
<path d="M69.9639 23.7778H81.0198L75.4918 27.165L69.9639 23.7778Z" fill="#A0A5AE"/>
<path d="M81.1818 28.2974H69.8179V30.5654H81.1818V28.2974Z" fill="#A0A5AE"/>
<path d="M81.1818 44.1733H69.8179V46.4414H81.1818V44.1733Z" fill="#A0A5AE"/>
<path d="M70.0005 47.592H81.0201L75.5103 50.9795L70.0005 47.592Z" fill="#A0A5AE"/>
<path d="M49.6528 69.2515C49.6528 70.1368 49.5408 70.9422 49.3168 71.6675C49.0928 72.3822 48.7568 73.0008 48.3088 73.5235C47.8715 74.0462 47.3221 74.4462 46.6608 74.7235C46.0101 75.0008 45.2528 75.1395 44.3888 75.1395C43.4928 75.1395 42.7141 75.0008 42.0528 74.7235C41.3915 74.4355 40.8421 74.0355 40.4048 73.5235C39.9675 73.0008 39.6421 72.3768 39.4288 71.6515C39.2155 70.9262 39.1088 70.1208 39.1088 69.2355C39.1088 68.0622 39.3008 67.0382 39.6848 66.1635C40.0688 65.2888 40.6501 64.6062 41.4288 64.1155C42.2181 63.6248 43.2101 63.3795 44.4048 63.3795C45.5461 63.3795 46.5061 63.6248 47.2848 64.1155C48.0635 64.5955 48.6501 65.2782 49.0448 66.1635C49.4501 67.0382 49.6528 68.0675 49.6528 69.2515ZM44.3888 73.8915C45.1995 73.8915 45.8715 73.7315 46.4048 73.4115C46.9381 73.0808 47.3435 72.6115 47.6208 72.0035C47.9088 71.3848 48.0741 70.6435 48.1168 69.7795H40.6448C40.6875 70.6435 40.8475 71.3848 41.1248 72.0035C41.4128 72.6115 41.8235 73.0808 42.3568 73.4115C42.9008 73.7315 43.5781 73.8915 44.3888 73.8915ZM44.4048 64.6435C43.6048 64.6435 42.9381 64.7982 42.4048 65.1075C41.8715 65.4168 41.4608 65.8648 41.1728 66.4515C40.8848 67.0275 40.7088 67.7208 40.6448 68.5315H48.1008C48.0048 67.3155 47.6581 66.3662 47.0608 65.6835C46.4741 64.9902 45.5888 64.6435 44.4048 64.6435ZM58.3802 74.9795H56.9562V67.5715H54.4282C54.3215 68.9262 54.1882 70.0835 54.0282 71.0435C53.8682 71.9928 53.6655 72.7662 53.4202 73.3635C53.1749 73.9608 52.8815 74.3982 52.5402 74.6755C52.1989 74.9528 51.7989 75.0915 51.3402 75.0915C51.2015 75.0915 51.0629 75.0808 50.9242 75.0595C50.7962 75.0488 50.6895 75.0222 50.6042 74.9795V73.9235C50.6682 73.9448 50.7375 73.9608 50.8122 73.9715C50.8869 73.9822 50.9615 73.9875 51.0362 73.9875C51.2709 73.9875 51.4842 73.8915 51.6762 73.6995C51.8682 73.5075 52.0389 73.2142 52.1882 72.8195C52.3482 72.4248 52.4922 71.9288 52.6202 71.3315C52.7482 70.7235 52.8602 70.0088 52.9562 69.1875C53.0522 68.3662 53.1375 67.4382 53.2122 66.4035H58.3802V74.9795ZM63.3582 66.2435C64.0089 66.2435 64.5742 66.3342 65.0542 66.5155C65.5342 66.6862 65.9075 66.9422 66.1742 67.2835C66.4409 67.6142 66.5742 68.0195 66.5742 68.4995C66.5742 69.0222 66.4302 69.4382 66.1422 69.7475C65.8542 70.0462 65.4595 70.2648 64.9582 70.4035V70.4675C65.2995 70.5635 65.6142 70.6968 65.9022 70.8675C66.1902 71.0382 66.4195 71.2622 66.5902 71.5395C66.7715 71.8168 66.8622 72.1742 66.8622 72.6115C66.8622 73.0808 66.7289 73.5075 66.4622 73.8915C66.2062 74.2755 65.8062 74.5795 65.2622 74.8035C64.7289 75.0275 64.0409 75.1395 63.1982 75.1395C62.7929 75.1395 62.4035 75.1182 62.0302 75.0755C61.6675 75.0328 61.3369 74.9688 61.0382 74.8835C60.7502 74.7982 60.4942 74.6968 60.2702 74.5795V73.3155C60.6329 73.4862 61.0595 73.6408 61.5502 73.7795C62.0515 73.9182 62.5955 73.9875 63.1822 73.9875C63.6089 73.9875 63.9929 73.9395 64.3342 73.8435C64.6862 73.7475 64.9635 73.5982 65.1662 73.3955C65.3689 73.1822 65.4702 72.8942 65.4702 72.5315C65.4702 72.2008 65.3795 71.9342 65.1982 71.7315C65.0169 71.5182 64.7449 71.3582 64.3822 71.2515C64.0302 71.1448 63.5769 71.0915 63.0222 71.0915H61.8702V69.9395H62.7982C63.5342 69.9395 64.1209 69.8435 64.5582 69.6515C65.0062 69.4488 65.2302 69.1075 65.2302 68.6275C65.2302 68.2222 65.0595 67.9182 64.7182 67.7155C64.3875 67.5128 63.9075 67.4115 63.2782 67.4115C62.8089 67.4115 62.3929 67.4595 62.0302 67.5555C61.6782 67.6408 61.2889 67.7742 60.8622 67.9555L60.3662 66.8355C60.8249 66.6328 61.3049 66.4835 61.8062 66.3875C62.3075 66.2915 62.8249 66.2435 63.3582 66.2435ZM70.2739 71.6355C70.2739 71.7315 70.2686 71.8702 70.2579 72.0515C70.2579 72.2222 70.2526 72.4088 70.2419 72.6115C70.2313 72.8035 70.2206 72.9902 70.2099 73.1715C70.1993 73.3422 70.1886 73.4808 70.1779 73.5875L74.7699 66.4035H76.4979V74.9795H75.1859V69.9235C75.1859 69.7528 75.1859 69.5288 75.1859 69.2515C75.1966 68.9742 75.2073 68.7022 75.2179 68.4355C75.2286 68.1582 75.2393 67.9502 75.2499 67.8115L70.6899 74.9795H68.9459V66.4035H70.2739V71.6355ZM86.1712 62.8515C86.1285 63.3848 85.9952 63.8328 85.7712 64.1955C85.5579 64.5582 85.2379 64.8302 84.8112 65.0115C84.3845 65.1928 83.8299 65.2835 83.1472 65.2835C82.4539 65.2835 81.8939 65.1928 81.4672 65.0115C81.0512 64.8302 80.7472 64.5635 80.5552 64.2115C80.3632 63.8488 80.2459 63.3955 80.2032 62.8515H81.5152C81.5685 63.4275 81.7179 63.8168 81.9632 64.0195C82.2192 64.2115 82.6245 64.3075 83.1792 64.3075C83.6699 64.3075 84.0539 64.2062 84.3312 64.0035C84.6192 63.7902 84.7899 63.4062 84.8432 62.8515H86.1712ZM80.5552 71.6355C80.5552 71.7315 80.5499 71.8702 80.5392 72.0515C80.5392 72.2222 80.5339 72.4088 80.5232 72.6115C80.5125 72.8035 80.5019 72.9902 80.4912 73.1715C80.4805 73.3422 80.4699 73.4808 80.4592 73.5875L85.0512 66.4035H86.7792V74.9795H85.4672V69.9235C85.4672 69.7528 85.4672 69.5288 85.4672 69.2515C85.4779 68.9742 85.4885 68.7022 85.4992 68.4355C85.5099 68.1582 85.5205 67.9502 85.5312 67.8115L80.9712 74.9795H79.2272V66.4035H80.5552V71.6355ZM91.5404 70.5955L88.5804 66.4035H90.1804L92.3884 69.6355L94.5804 66.4035H96.1644L93.2044 70.5955L96.3244 74.9795H94.7244L92.3884 71.5555L90.0204 74.9795H88.4364L91.5404 70.5955ZM101.385 78.8195H99.9772V75.0115L96.6172 66.4035H98.0892L99.8812 71.1075C100.041 71.5342 100.196 71.9875 100.345 72.4675C100.495 72.9368 100.596 73.3048 100.649 73.5715H100.729C100.793 73.3048 100.895 72.9368 101.033 72.4675C101.172 71.9982 101.327 71.5448 101.497 71.1075L103.273 66.4035H104.745L101.385 75.0115V78.8195ZM109.51 78.8195H108.102V75.0115L104.742 66.4035H106.214L108.006 71.1075C108.166 71.5342 108.321 71.9875 108.47 72.4675C108.62 72.9368 108.721 73.3048 108.774 73.5715H108.854C108.918 73.3048 109.02 72.9368 109.158 72.4675C109.297 71.9982 109.452 71.5448 109.622 71.1075L111.398 66.4035H112.87L109.51 75.0115V78.8195Z" fill="#A0A5AE"/>
<path d="M50.712 94.9795H29.16V77.8435H32.784V91.9555H38.112V77.8435H41.76V91.9555H47.088V77.8435H50.712V94.9795ZM58.203 87.0595C58.203 87.3315 58.187 87.6675 58.155 88.0675C58.139 88.4675 58.115 88.8755 58.083 89.2915C58.067 89.7075 58.043 90.0755 58.011 90.3955C57.979 90.7155 57.955 90.9395 57.939 91.0675L63.987 81.8755H68.283V94.9795H64.827V89.7475C64.827 89.3155 64.843 88.8435 64.875 88.3315C64.907 87.8035 64.939 87.3155 64.971 86.8675C65.019 86.4035 65.051 86.0515 65.067 85.8115L59.043 94.9795H54.747V81.8755H58.203V87.0595ZM90.6444 81.8755L85.8204 88.1635L91.1004 94.9795H87.2844L82.2924 88.3315V94.9795H78.9564V88.3315L73.9644 94.9795H70.1484L75.4284 88.1635L70.6044 81.8755H74.3004L78.9564 88.2355V81.8755H82.2924V88.2355L86.9484 81.8755H90.6444ZM96.4296 87.0595C96.4296 87.3315 96.4136 87.6675 96.3816 88.0675C96.3656 88.4675 96.3416 88.8755 96.3096 89.2915C96.2936 89.7075 96.2696 90.0755 96.2376 90.3955C96.2056 90.7155 96.1816 90.9395 96.1656 91.0675L102.214 81.8755H106.51V94.9795H103.054V89.7475C103.054 89.3155 103.07 88.8435 103.102 88.3315C103.134 87.8035 103.166 87.3155 103.198 86.8675C103.246 86.4035 103.278 86.0515 103.294 85.8115L97.2696 94.9795H92.9736V81.8755H96.4296V87.0595ZM117.543 81.6355C119.015 81.6355 120.207 82.2115 121.119 83.3635C122.031 84.4995 122.487 86.1795 122.487 88.4035C122.487 89.8915 122.271 91.1475 121.839 92.1715C121.407 93.1795 120.815 93.9395 120.063 94.4515C119.311 94.9635 118.439 95.2195 117.447 95.2195C116.823 95.2195 116.279 95.1395 115.815 94.9795C115.367 94.8195 114.983 94.6115 114.663 94.3555C114.343 94.0995 114.063 93.8275 113.823 93.5395H113.631C113.695 93.8435 113.743 94.1635 113.775 94.4995C113.807 94.8195 113.823 95.1395 113.823 95.4595V100.739H110.247V81.8755H113.151L113.655 83.5795H113.823C114.063 83.2275 114.351 82.9075 114.687 82.6195C115.023 82.3155 115.423 82.0755 115.887 81.8995C116.367 81.7235 116.919 81.6355 117.543 81.6355ZM116.391 84.4915C115.767 84.4915 115.271 84.6195 114.903 84.8755C114.535 85.1315 114.263 85.5235 114.087 86.0515C113.927 86.5635 113.839 87.2115 113.823 87.9955V88.3795C113.823 89.2275 113.903 89.9475 114.063 90.5395C114.223 91.1155 114.495 91.5555 114.879 91.8595C115.263 92.1635 115.783 92.3155 116.439 92.3155C116.983 92.3155 117.431 92.1635 117.783 91.8595C118.135 91.5555 118.399 91.1075 118.575 90.5155C118.751 89.9235 118.839 89.2035 118.839 88.3555C118.839 87.0755 118.639 86.1155 118.239 85.4755C117.855 84.8195 117.239 84.4915 116.391 84.4915Z" fill="#A0A5AE"/>
</svg>
